<svg width="1080" height="1080" viewBox="0 0 1080 1080" fill="none" xmlns="http://www.w3.org/2000/svg">
  <defs>
    <linearGradient id="bg" x1="0" y1="0" x2="1" y2="1">
      <stop offset="0%" stop-color="#0f0f23"/>
      <stop offset="100%" stop-color="#1a1a3e"/>
    </linearGradient>
    <linearGradient id="accent" x1="0" y1="0" x2="1" y2="0">
      <stop offset="0%" stop-color="#00d4ff"/>
      <stop offset="100%" stop-color="#7b2ff7"/>
    </linearGradient>
    <linearGradient id="glow1" x1="0.5" y1="0" x2="0.5" y2="1">
      <stop offset="0%" stop-color="#00d4ff" stop-opacity="0.12"/>
      <stop offset="100%" stop-color="#00d4ff" stop-opacity="0"/>
    </linearGradient>
  </defs>
  <rect width="1080" height="1080" fill="url(#bg)"/>
  <circle cx="300" cy="300" r="350" fill="url(#glow1)"/>
  <g opacity="0.03" stroke="#ffffff">
    <line x1="0" y1="180" x2="1080" y2="180"/>
    <line x1="0" y1="360" x2="1080" y2="360"/>
    <line x1="0" y1="540" x2="1080" y2="540"/>
    <line x1="0" y1="720" x2="1080" y2="720"/>
    <line x1="0" y1="900" x2="1080" y2="900"/>
    <line x1="216" y1="0" x2="216" y2="1080"/>
    <line x1="432" y1="0" x2="432" y2="1080"/>
    <line x1="648" y1="0" x2="648" y2="1080"/>
    <line x1="864" y1="0" x2="864" y2="1080"/>
  </g>
  <!-- Engrenagem -->
  <g transform="translate(540, 320)">
    <circle cx="0" cy="0" r="70" fill="none" stroke="url(#accent)" stroke-width="3" opacity="0.5"/>
    <circle cx="0" cy="0" r="50" fill="none" stroke="url(#accent)" stroke-width="2"/>
    <g stroke="#00d4ff" stroke-width="4" stroke-linecap="round">
      <line x1="0" y1="-80" x2="0" y2="-95" opacity="0.7"/>
      <line x1="57" y1="-57" x2="67" y2="-67" opacity="0.5"/>
      <line x1="80" y1="0" x2="95" y2="0" opacity="0.7"/>
      <line x1="57" y1="57" x2="67" y2="67" opacity="0.5"/>
      <line x1="0" y1="80" x2="0" y2="95" opacity="0.7"/>
      <line x1="-57" y1="57" x2="-67" y2="67" opacity="0.5"/>
      <line x1="-80" y1="0" x2="-95" y2="0" opacity="0.7"/>
      <line x1="-57" y1="-57" x2="-67" y2="-67" opacity="0.5"/>
    </g>
    <text x="0" y="6" font-family="Montserrat, system-ui, sans-serif" font-size="30" font-weight="700" text-anchor="middle" fill="url(#accent)">AH</text>
  </g>
  <text x="60" y="650" font-family="Montserrat, system-ui, sans-serif" font-size="56" font-weight="700" fill="#ffffff">
    Automação para
  </text>
  <text x="60" y="720" font-family="Montserrat, system-ui, sans-serif" font-size="56" font-weight="700" fill="#ffffff">
    pequenas empresas
  </text>
  <text x="60" y="790" font-family="Montserrat, system-ui, sans-serif" font-size="22" font-weight="400" fill="#a0a0c0">
    Guia prático pra começar hoje
  </text>
  <rect x="60" y="830" width="60" height="4" rx="2" fill="url(#accent)"/>
  <text x="60" y="1020" font-family="Montserrat, system-ui, sans-serif" font-size="14" fill="#404070" letter-spacing="3">@ANDREHS.DEV</text>
</svg>
