<svg width="1080" height="1080" viewBox="0 0 1080 1080" fill="none" xmlns="http://www.w3.org/2000/svg">
  <defs>
    <linearGradient id="bg" x1="0" y1="0" x2="1" y2="1">
      <stop offset="0%" stop-color="#0f0f23"/>
      <stop offset="100%" stop-color="#1a1a3e"/>
    </linearGradient>
    <linearGradient id="accent" x1="0" y1="0" x2="1" y2="0">
      <stop offset="0%" stop-color="#00d4ff"/>
      <stop offset="100%" stop-color="#7b2ff7"/>
    </linearGradient>
    <linearGradient id="glow1" x1="0.5" y1="0" x2="0.5" y2="1">
      <stop offset="0%" stop-color="#00d4ff" stop-opacity="0.12"/>
      <stop offset="100%" stop-color="#00d4ff" stop-opacity="0"/>
    </linearGradient>
  </defs>
  <rect width="1080" height="1080" fill="url(#bg)"/>
  <circle cx="300" cy="300" r="350" fill="url(#glow1)"/>
  <g opacity="0.03" stroke="#ffffff">
    <line x1="0" y1="180" x2="1080" y2="180"/>
    <line x1="0" y1="360" x2="1080" y2="360"/>
    <line x1="0" y1="540" x2="1080" y2="540"/>
    <line x1="0" y1="720" x2="1080" y2="720"/>
    <line x1="0" y1="900" x2="1080" y2="900"/>
  </g>
  <!-- Rede neural simplificada -->
  <g transform="translate(540, 280)">
    <circle cx="-25" cy="-18" r="10" fill="none" stroke="#00d4ff" stroke-width="2" opacity="0.6"/>
    <circle cx="25" cy="-18" r="10" fill="none" stroke="#7b2ff7" stroke-width="2" opacity="0.6"/>
    <circle cx="0" cy="22" r="10" fill="none" stroke="#00d4ff" stroke-width="2" opacity="0.6"/>
    <line x1="-25" y1="-18" x2="25" y2="-18" stroke="#00d4ff" stroke-width="1.5" opacity="0.4"/>
    <line x1="-25" y1="-18" x2="0" y2="22" stroke="#7b2ff7" stroke-width="1.5" opacity="0.4"/>
    <line x1="25" y1="-18" x2="0" y2="22" stroke="#00d4ff" stroke-width="1.5" opacity="0.4"/>
  </g>
  <text x="60" y="640" font-family="Montserrat, system-ui, sans-serif" font-size="50" font-weight="700" fill="#ffffff">
    Inteligência
  </text>
  <text x="60" y="705" font-family="Montserrat, system-ui, sans-serif" font-size="50" font-weight="700" fill="#ffffff">
    Artificial
  </text>
  <text x="60" y="770" font-family="Montserrat, system-ui, sans-serif" font-size="50" font-weight="700" fill="#ffffff">
    no Dia a Dia
  </text>
  <text x="60" y="830" font-family="Montserrat, system-ui, sans-serif" font-size="20" font-weight="400" fill="#a0a0c0">
    Ferramentas que realmente funcionam
  </text>
  <rect x="60" y="870" width="60" height="4" rx="2" fill="url(#accent)"/>
  <text x="60" y="1020" font-family="Montserrat, system-ui, sans-serif" font-size="14" fill="#404070" letter-spacing="3">@ANDREHS.DEV</text>
</svg>
