<svg width="1200" height="630" viewBox="0 0 1200 630" fill="none" xmlns="http://www.w3.org/2000/svg">
  <defs>
    <linearGradient id="bg" x1="0" y1="0" x2="1" y2="1">
      <stop offset="0%" stop-color="#0f0f23"/>
      <stop offset="100%" stop-color="#1a1a3e"/>
    </linearGradient>
    <linearGradient id="accent" x1="0" y1="0" x2="1" y2="0">
      <stop offset="0%" stop-color="#00d4ff"/>
      <stop offset="100%" stop-color="#7b2ff7"/>
    </linearGradient>
    <linearGradient id="chain" x1="0" y1="0" x2="0" y2="1">
      <stop offset="0%" stop-color="#00d4ff" stop-opacity="0.2"/>
      <stop offset="100%" stop-color="#00d4ff" stop-opacity="0"/>
    </linearGradient>
  </defs>
  <rect width="1200" height="630" fill="url(#bg)"/>
  <circle cx="600" cy="315" r="300" fill="url(#chain)"/>
  
  <!-- Chain blocks -->
  <rect x="300" y="200" width="80" height="80" rx="8" fill="none" stroke="#00d4ff" stroke-width="2.5" opacity="0.8"/>
  <rect x="310" y="210" width="60" height="60" rx="4" fill="#00d4ff" opacity="0.1"/>
  <text x="340" y="246" text-anchor="middle" font-family="monospace" font-size="20" fill="#00d4ff" opacity="0.6">B1</text>
  
  <line x1="380" y1="220" x2="440" y2="210" stroke="#7b2ff7" stroke-width="2" opacity="0.5"/>
  <line x1="380" y1="260" x2="440" y2="250" stroke="#7b2ff7" stroke-width="2" opacity="0.5"/>
  
  <rect x="440" y="190" width="80" height="80" rx="8" fill="none" stroke="#7b2ff7" stroke-width="2.5" opacity="0.8"/>
  <rect x="450" y="200" width="60" height="60" rx="4" fill="#7b2ff7" opacity="0.1"/>
  <text x="480" y="236" text-anchor="middle" font-family="monospace" font-size="20" fill="#7b2ff7" opacity="0.6">B2</text>
  
  <line x1="520" y1="210" x2="580" y2="230" stroke="#00d4ff" stroke-width="2" opacity="0.5"/>
  <line x1="520" y1="250" x2="580" y2="270" stroke="#00d4ff" stroke-width="2" opacity="0.5"/>
  
  <rect x="580" y="210" width="80" height="80" rx="8" fill="none" stroke="#00d4ff" stroke-width="2.5" opacity="0.8"/>
  <rect x="590" y="220" width="60" height="60" rx="4" fill="#00d4ff" opacity="0.1"/>
  <text x="620" y="256" text-anchor="middle" font-family="monospace" font-size="20" fill="#00d4ff" opacity="0.6">B3</text>
  
  <line x1="660" y1="230" x2="720" y2="200" stroke="#7b2ff7" stroke-width="2" opacity="0.5"/>
  <line x1="660" y1="270" x2="720" y2="240" stroke="#7b2ff7" stroke-width="2" opacity="0.5"/>
  
  <rect x="720" y="180" width="80" height="80" rx="8" fill="none" stroke="#7b2ff7" stroke-width="2.5" opacity="0.8"/>
  <rect x="730" y="190" width="60" height="60" rx="4" fill="#7b2ff7" opacity="0.1"/>
  <text x="760" y="226" text-anchor="middle" font-family="monospace" font-size="20" fill="#7b2ff7" opacity="0.6">+</text>

  <!-- Nodes -->
  <circle cx="180" cy="450" r="20" fill="#00d4ff" opacity="0.15" stroke="#00d4ff" stroke-width="1.5"/>
  <circle cx="350" cy="480" r="20" fill="#7b2ff7" opacity="0.15" stroke="#7b2ff7" stroke-width="1.5"/>
  <circle cx="520" cy="430" r="20" fill="#00d4ff" opacity="0.15" stroke="#00d4ff" stroke-width="1.5"/>
  <circle cx="680" cy="490" r="20" fill="#7b2ff7" opacity="0.15" stroke="#7b2ff7" stroke-width="1.5"/>
  <circle cx="850" cy="440" r="20" fill="#00d4ff" opacity="0.15" stroke="#00d4ff" stroke-width="1.5"/>
  <circle cx="1020" cy="470" r="20" fill="#7b2ff7" opacity="0.15" stroke="#7b2ff7" stroke-width="1.5"/>
  
  <text x="600" y="130" text-anchor="middle" font-family="'Courier New', monospace" font-size="14" fill="#00d4ff" opacity="0.5" letter-spacing="6">TECNOLOGIA</text>
  <text x="600" y="400" text-anchor="middle" font-family="'Impact', sans-serif" font-size="56" fill="url(#accent)" letter-spacing="2">BLOCKCHAIN</text>
  <text x="600" y="440" text-anchor="middle" font-family="'Courier New', monospace" font-size="18" fill="#888" letter-spacing="4">O QUE É E POR QUE IMPORTA</text>
  <line x1="350" y1="470" x2="850" y2="470" stroke="url(#accent)" stroke-width="1.5" opacity="0.3"/>
</svg>
