<svg width="1200" height="630" viewBox="0 0 1200 630" fill="none" xmlns="http://www.w3.org/2000/svg">
  <defs>
    <linearGradient id="bg" x1="0" y1="0" x2="1" y2="1">
      <stop offset="0%" stop-color="#0f0f23"/>
      <stop offset="100%" stop-color="#1a1a3e"/>
    </linearGradient>
    <linearGradient id="accent" x1="0" y1="0" x2="1" y2="0">
      <stop offset="0%" stop-color="#00d4ff"/>
      <stop offset="100%" stop-color="#7b2ff7"/>
    </linearGradient>
    <linearGradient id="accent2" x1="0" y1="0" x2="1" y2="0">
      <stop offset="0%" stop-color="#f7972f"/>
      <stop offset="100%" stop-color="#f73b2f"/>
    </linearGradient>
    <linearGradient id="glow1" x1="0.5" y1="0" x2="0.5" y2="1">
      <stop offset="0%" stop-color="#00d4ff" stop-opacity="0.12"/>
      <stop offset="100%" stop-color="#00d4ff" stop-opacity="0"/>
    </linearGradient>
    <linearGradient id="glow2" x1="0.5" y1="0" x2="0.5" y2="1">
      <stop offset="0%" stop-color="#7b2ff7" stop-opacity="0.08"/>
      <stop offset="100%" stop-color="#7b2ff7" stop-opacity="0"/>
    </linearGradient>
  </defs>
  <rect width="1200" height="630" fill="url(#bg)"/>
  <circle cx="250" cy="250" r="320" fill="url(#glow1)"/>
  <circle cx="950" cy="400" r="280" fill="url(#glow2)"/>
  <g opacity="0.03" stroke="#ffffff">
    <line x1="0" y1="105" x2="1200" y2="105"/>
    <line x1="0" y1="210" x2="1200" y2="210"/>
    <line x1="0" y1="315" x2="1200" y2="315"/>
    <line x1="0" y1="420" x2="1200" y2="420"/>
    <line x1="0" y1="525" x2="1200" y2="525"/>
  </g>
  <!-- Ícone de calendário/checklist -->
  <g transform="translate(80, 140)">
    <rect x="0" y="20" width="60" height="60" rx="8" fill="#00d4ff" opacity="0.15"/>
    <rect x="25" y="20" width="60" height="60" rx="8" fill="#7b2ff7" opacity="0.15"/>
    <rect x="50" y="20" width="60" height="60" rx="8" fill="#f7972f" opacity="0.15"/>
    <rect x="12" y="28" width="36" height="4" rx="2" fill="#00d4ff"/>
    <rect x="12" y="38" width="28" height="4" rx="2" fill="#00d4ff"/>
    <rect x="12" y="48" width="32" height="4" rx="2" fill="#00d4ff"/>
    <rect x="12" y="58" width="20" height="4" rx="2" fill="#00d4ff"/>
    <rect x="37" y="28" width="36" height="4" rx="2" fill="#7b2ff7"/>
    <rect x="37" y="38" width="28" height="4" rx="2" fill="#7b2ff7"/>
    <rect x="37" y="48" width="32" height="4" rx="2" fill="#7b2ff7"/>
    <rect x="37" y="58" width="14" height="4" rx="2" fill="#7b2ff7"/>
    <rect x="62" y="28" width="36" height="4" rx="2" fill="#f7972f"/>
    <rect x="62" y="38" width="22" height="4" rx="2" fill="#f7972f"/>
    <rect x="62" y="48" width="30" height="4" rx="2" fill="#f7972f"/>
  </g>
  <!-- Título principal -->
  <text x="80" y="290" font-family="system-ui, -apple-system, sans-serif" font-size="48" font-weight="700" fill="#ffffff" letter-spacing="-1">Como Usar IA para</text>
  <text x="80" y="355" font-family="system-ui, -apple-system, sans-serif" font-size="48" font-weight="700" fill="url(#accent)" letter-spacing="-1">Organizar Sua Rotina</text>
  <text x="80" y="420" font-family="system-ui, -apple-system, sans-serif" font-size="48" font-weight="700" fill="#ffffff" letter-spacing="-1">de Trabalho</text>
  <!-- Subtítulo -->
  <text x="80" y="470" font-family="system-ui, -apple-system, sans-serif" font-size="20" fill="#a0a0b8" letter-spacing="-0.3">Guia prático com ChatGPT, Gemini e ferramentas gratuitas</text>
  <!-- Tags -->
  <rect x="80" y="500" width="90" height="30" rx="15" stroke="#00d4ff" stroke-opacity="0.3" stroke-width="1" fill="none"/>
  <text x="125" y="520" font-family="system-ui, -apple-system, sans-serif" font-size="13" fill="#00d4ff" fill-opacity="0.8" text-anchor="middle">Produtividade</text>
  <rect x="182" y="500" width="60" height="30" rx="15" stroke="#7b2ff7" stroke-opacity="0.3" stroke-width="1" fill="none"/>
  <text x="212" y="520" font-family="system-ui, -apple-system, sans-serif" font-size="13" fill="#7b2ff7" fill-opacity="0.8" text-anchor="middle">IA</text>
  <rect x="254" y="500" width="70" height="30" rx="15" stroke="#f7972f" stroke-opacity="0.3" stroke-width="1" fill="none"/>
  <text x="289" y="520" font-family="system-ui, -apple-system, sans-serif" font-size="13" fill="#f7972f" fill-opacity="0.8" text-anchor="middle">Rotina</text>
  <!-- Logo marca d'água -->
  <text x="1120" y="590" font-family="system-ui, -apple-system, sans-serif" font-size="14" fill="#ffffff" fill-opacity="0.15" text-anchor="end">AH Digital</text>
  <!-- Ícone de checkmark grande -->
  <g transform="translate(920, 170)">
    <circle cx="40" cy="40" r="80" fill="#7b2ff7" opacity="0.08"/>
    <circle cx="40" cy="40" r="55" fill="#7b2ff7" opacity="0.15"/>
    <path d="M20 40 L35 55 L60 25" stroke="#7b2ff7" stroke-width="6" stroke-linecap="round" stroke-linejoin="round" opacity="0.6"/>
  </g>
  <!-- Ícones de IA decorativos -->
  <g transform="translate(860, 330)" opacity="0.2">
    <rect x="0" y="0" width="40" height="40" rx="6" fill="#00d4ff"/>
    <circle cx="20" cy="12" r="6" fill="#0f0f23"/>
    <rect x="8" y="24" width="24" height="2" rx="1" fill="#0f0f23"/>
    <rect x="8" y="30" width="16" height="2" rx="1" fill="#0f0f23"/>
  </g>
  <g transform="translate(960, 380)" opacity="0.15">
    <rect x="0" y="0" width="50" height="50" rx="8" fill="#7b2ff7"/>
    <circle cx="25" cy="15" r="8" fill="#0f0f23"/>
    <rect x="10" y="30" width="30" height="3" rx="1.5" fill="#0f0f23"/>
    <rect x="10" y="38" width="20" height="3" rx="1.5" fill="#0f0f23"/>
  </g>
</svg>
