<svg width="1200" height="630" viewBox="0 0 1200 630" xmlns="http://www.w3.org/2000/svg">
  <defs>
    <linearGradient id="bg" x1="0" y1="0" x2="1" y2="1">
      <stop offset="0%" stop-color="#12051f"/>
      <stop offset="55%" stop-color="#1c1040"/>
      <stop offset="100%" stop-color="#061725"/>
    </linearGradient>
    <linearGradient id="cyan" x1="0" y1="0" x2="1" y2="0">
      <stop offset="0%" stop-color="#22d3ee"/>
      <stop offset="100%" stop-color="#60a5fa"/>
    </linearGradient>
    <linearGradient id="purple" x1="0" y1="0" x2="1" y2="1">
      <stop offset="0%" stop-color="#7c3aed"/>
      <stop offset="100%" stop-color="#d946ef"/>
    </linearGradient>
    <pattern id="grid" width="40" height="40" patternUnits="userSpaceOnUse">
      <path d="M 40 0 L 0 0 0 40" fill="none" stroke="#ffffff" stroke-opacity="0.045" stroke-width="1"/>
    </pattern>
  </defs>

  <rect width="1200" height="630" fill="url(#bg)"/>
  <rect width="1200" height="630" fill="url(#grid)"/>

  <circle cx="1030" cy="130" r="150" fill="#22d3ee" opacity="0.08"/>
  <circle cx="1085" cy="470" r="210" fill="#7c3aed" opacity="0.10"/>
  <path d="M70 130 C250 20 455 95 625 58 C790 22 930 80 1120 32" fill="none" stroke="url(#cyan)" stroke-width="2" opacity="0.32"/>
  <path d="M80 520 C250 440 410 505 580 460 C755 415 900 470 1120 420" fill="none" stroke="url(#purple)" stroke-width="2" opacity="0.28"/>

  <g transform="translate(70 70)">
    <rect width="92" height="92" rx="22" fill="rgba(255,255,255,0.06)" stroke="#22d3ee" stroke-opacity="0.35"/>
    <text x="46" y="58" text-anchor="middle" font-family="Inter, Arial, sans-serif" font-size="34" font-weight="800" fill="#e5e7eb">AH</text>
  </g>

  <text x="70" y="235" font-family="Inter, Arial, sans-serif" font-size="24" font-weight="700" fill="#22d3ee" letter-spacing="2">MICROSOFT BUILD 2026</text>
  <text x="70" y="315" font-family="Inter, Arial, sans-serif" font-size="66" font-weight="900" fill="#ffffff">IA própria da</text>
  <text x="70" y="390" font-family="Inter, Arial, sans-serif" font-size="66" font-weight="900" fill="#ffffff">Microsoft</text>
  <text x="70" y="452" font-family="Inter, Arial, sans-serif" font-size="30" fill="#cbd5e1" font-weight="500">MAI entra no Copilot para cortar custo</text>
  <text x="70" y="500" font-family="Inter, Arial, sans-serif" font-size="24" fill="#93c5fd">10,9 bi em agentes de IA em 2026</text>

  <g transform="translate(820 180)">
    <rect width="280" height="250" rx="24" fill="rgba(255,255,255,0.055)" stroke="#ffffff" stroke-opacity="0.12"/>
    <text x="24" y="42" font-family="Inter, Arial, sans-serif" font-size="18" font-weight="700" fill="#e5e7eb">Mercado de agentes</text>
    <line x1="24" y1="198" x2="244" y2="198" stroke="#ffffff" stroke-opacity="0.18"/>
    <line x1="24" y1="148" x2="244" y2="148" stroke="#ffffff" stroke-opacity="0.08"/>
    <line x1="24" y1="98" x2="244" y2="98" stroke="#ffffff" stroke-opacity="0.08"/>

    <rect x="44" y="146" width="48" height="52" rx="8" fill="url(#purple)" opacity="0.88"/>
    <rect x="116" y="112" width="48" height="86" rx="8" fill="url(#cyan)" opacity="0.92"/>
    <rect x="188" y="74" width="48" height="124" rx="8" fill="url(#purple)" opacity="0.78"/>

    <text x="68" y="224" text-anchor="middle" font-family="Inter, Arial, sans-serif" font-size="13" fill="#94a3b8">2025</text>
    <text x="140" y="224" text-anchor="middle" font-family="Inter, Arial, sans-serif" font-size="13" fill="#94a3b8">2026</text>
    <text x="212" y="224" text-anchor="middle" font-family="Inter, Arial, sans-serif" font-size="13" fill="#94a3b8">2033</text>

    <text x="140" y="276" text-anchor="middle" font-family="Inter, Arial, sans-serif" font-size="14" fill="#cbd5e1">Fonte: Grand View Research</text>
  </g>
</svg>
